<svg xmlns="http://www.w3.org/2000/svg" viewBox="0 0 512 512"><path fill="#F1ACB1" d="M89 27h2v12h-1v7h1l.4 2.4C93 58.9 93 58.9 95 64h2l.8 1.9C99 68 99 68 102 70v2h2v2l2.8.3c3.4.7 4 1.3 6.2 3.7l4 1 1 2 4.6 1.1 2.5.5 1.9.4v2l3 .4 3.9.5 3.8.6c3.3.5 3.3.5 5.3 1.5l5.1.6 2.8.2 2.1.2v1q11.4 2.3 23 3v1l2.2.1A142 142 0 0 1 221 103v2l6 1 1 3 5 1v2h3c7 7.7 7 7.7 7 12h2c1.9 3.3 2.5 6.3 3 10h1v17h-1l-1 6h-2v4h-2l-.8 2.4c-1.4 2.9-2.2 3.5-5.2 4.6v3l-1.8.8c-2.2 1.2-2.2 1.2-3.8 2.8-1.4 1.4-1.4 1.4-4.4 2.4l-1 2a62 62 0 0 1-18 4v1q-27 2.3-54 3v1l-1.9.4-5.3 1-5.4 1-2.4.5-2.2.3c-1.8.8-1.8.8-3 2.7l-.8 2.1-1 2-.1 5.1.1 2.8v2.1h2v3h2v2l1.9.3 2.1.7 1 3c1.9.6 1.9.6 4 1l2 1v2l2.8.4c3.2.6 3.2.6 6.2 1.6v2l2.1.4q5 1 9.9 2.6l1 2 6 3 1 1 7.5.1h9.6l4.9-.1h12c0-4 0-4-.7-7.2-.4-4.9.8-7.4 2.7-11.8h2v-2l6-3v-1a40 40 0 0 1 15-2v-2l1.7-.1c19.3-.7 19.3-.7 26.3-2.5q3.5-.6 7-.4v-2c3.1-1.8 4.2-2 8-2l1-4h2v-3l3-3a35 35 0 0 0 4.5-20.9V164c0-6.4-1-11.2-3.6-16.9-.9-2.1-.9-2.1-.9-5.1h4c3 6.5 3 6.5 3 11h2c2.5 5.8 2.3 11.3 2.2 17.5l.1 3.1c0 5.2-.2 9.6-2.3 14.4h-2l-.4 1.6q-1.1 4.3-2.6 8.4h-3l-1 4h-3v2l-5 1-1 3c-2 .9-2 .9-4.5 1.6-4.4 1.3-4.4 1.3-5.5 2.4l-6 .7-3.7.4-3.9.4-7.6.8-3.5.3L230 216v1l-10 2v2h-2v11h2l1 2 2.8.1c91.4 4.1 91.4 4.1 114.2 19.9 1.3 2.6 1.3 4.8 1.6 7.6l.2 3.1.2 2.3 1.7-.8A194 194 0 0 1 376 252l2.5-.7a52 52 0 0 1 36.4 4A43 43 0 0 1 435 283c.7 3.4.7 3.4 1 7l.2 2.1c1.5 30.7-22.3 63.8-40.1 86.8l-1.4 1.7a23 23 0 0 1-17.1 10.1q-10.6.7-21.4.4h-4.7L340 391v2.3l-.3 10.3-.1 3.5c-.3 11.6-.3 11.6-3.6 16.9-2.5 2.2-2.5 2.2-5.4 3.9l-2.8 1.7c-2.7 1.3-4.9 2-7.8 2.4l-.1 1.8q-1 9.8-3.1 19.5l-.5 2.9c-1.7 7.8-1.7 7.8-5 10.8a43 43 0 0 1-11.4 4.9l-2.4.8A343 343 0 0 1 238 484l-2.7.3q-12.9 1-25.8.9l-2.3.1c-31.6-.1-74.1-2-102.2-18.3a18 18 0 0 1-4.4-9.1l-.6-3-.6-3.1-.7-3.1Q97 440.3 96 432l-2.5-.7A33 33 0 0 1 78 421c-1.4-7.8-1.4-15.7-1.6-23.6v-2.6q-.7-37-.4-74l.1-18.3v-25.3l.1-10.4v-3.1c.1-6.8.1-6.8 2.1-9.4C97 238.2 135.9 238.1 159 236l-4-1v-2l-10-2v-2l-8-2v-2h-3v-2h-3v-2h-2v-2l-1.9-.8c-2.1-1.2-2.1-1.2-2.9-3.3l-.2-1.9h-2c-2.6-3.9-2.3-8-2.2-12.5l-.1-2.3c0-3.9.1-6.9 2.3-10.2h2v-2h2l.2-1.9c.8-2.1.8-2.1 3-3.4l2.7-.9 2.7-1.1c2.4-.7 2.4-.7 5.4-.7v-2a814 814 0 0 1 44.2-3.6l9.8-.5 6.1-.4q8-.5 15.9-1.5v-2c6.6-3 6.6-3 10-3l2-4h2l.4-1.6q1.1-4.3 2.6-8.4h2v-13h-2l-3-10h-3c-1.6-1.4-1.6-1.4-3-3l-2-1v-2q-7.5-1.5-15-2.4c-3-.6-3-.6-6-2.6-2.7-.4-2.7-.4-6-.6l-3.6-.2-3.7-.2-7.3-.4-3.3-.2q-4.6-.7-9.1-2.4l-8.2-1q-9.6-1-18.8-3v-2l-3.1-.4-9.9-1.6v-2l-2.8-.4-7.2-1.6v-2l-3.3-.9C111 97 111 97 108 95v-2l-5-1-1-3-1.8-.4c-3.3-.9-4.9-3.1-7.2-5.6l-2.1-1.9C88.6 78.6 87.4 76 86 73l-1.1-1.9a40 40 0 0 1-3.2-17.3v-2.2C81.8 45.1 83 39.2 85 33h2l.4-2.4C88 28 88 28 89 27m255.6 268.4-2.6 1.4c-2 1.2-2 1.2-3 3.2v7.5l.1 3.2.1 3.2.2 10.2.2 6.9.4 17 3.8-.1c4 0 6.1.4 9.2 3.1q2.3 3.9 4 8c1.7 3.9 1.7 3.9 4 5 5.9.6 11.1.6 16-3 13.6-14.4 30.3-39.5 31.1-59.9a22 22 0 0 0-7.4-16.3c-5.6-4.9-12-5.4-19.1-5.2-13 1.5-25.6 9.8-37 15.8"/><path fill="#B83C4E" d="M104 84h3l1 2 3 1v2l5-1-2-1v-3l1.6.4q4.2 1 8.4 1.6v2l2.6-.1c3.8.1 6.7.9 10.4 2.1v2c5.8-.8 5.8-.8 8-3v4l10-1 1 5h4l-1 2-3-1v3h-3v4h6l1 3-11-2v2h-2l-1-5 3-1v3h2v-6h-6v-2h-4v-2h-10v-2l-4-1v-3h-7v2h-4v4h-2v-2h-3v-2l-1.8-.2c-2.8-1-4.2-2.6-6.2-4.8zm71 12h6l-1 2 5.4.1h3C191 98 191 98 193 97v4h4v2h-4v2h-4v-2h-2v-2h-2v4h-11l1-3h3v-3h-3zm-2 3 1 4h-2v4h-2v2l2 1c-6.2-.6-6.2-.6-8-1l-1-2 1-2h-2l1-4h10zm28 13h12v3l9 1-1 3-3-1-1 2-1-4h-5v-2h-10zm36 9 3 1-1 4h2l.8 2.9c1.2 3.1 1.2 3.1 4.2 5.1q.1 4.4-.3 8.6l-.2 2.5-.5 5.9h-2v-9h-2l-1 3-3-10 3-1v-4h-3l-1 3v-3h-2l1-4h2zm3 14 1 3Zm0 12 1 4h2l-2 8h-2c-1.6-3.2-1.1-6.4-1-10h2zm-80 28h18v1l12.1.1h9.9c3-.1 3-.1 6.2-.7 2.8-.4 2.8-.4 5.8.6l-1 5-18-1v3l2 1-8.2.1-2.4.1c-4.2 0-6.7-.2-10.4-2.2-3.3-.3-3.3-.3-7-.2l-3.7-.1c-3.1.3-4.7.7-7.3 2.3-2.5 1.3-3.9.9-6.6.6l-2.5-.3-1.9-.3-1 2-1-5c3.8-2.6 7.2-2.4 11.6-2.6 8.3-.3 8.3-.3 9.4-1.4zm-11 7 4 1Zm-25 14h3v12l4 1v4c-2.8-.3-3.8-.8-5.8-2.9-1.8-4.6-1.4-9.1-1.2-14.1m107 12h5v1h10l1 4h-8v-1h-7zm-18 25 .3 1.9.7 2.1 3 1c.7 2.1.7 2.1 1 4h4l-2-7c100.4 1.9 100.4 1.9 118 20 .8 3.1.8 3.1 1.2 6.7l.5 3.6.3 2.7 3-1.5c20-10.3 41.2-20.3 64-13.9a40 40 0 0 1 23.5 19.4c7.2 16.8 5.5 33-1.1 49.7A235 235 0 0 1 392 383l-2.2 2.7c-5.9 4.9-13.9 4.6-21.2 4.5H366l-8.1-.1h-5.5L339 390v11.7c0 18.2 0 18.2-5 23.3l-6.6 3c-6 3.1-6 3.1-7.8 6.7q-1 5.1-1.6 10.3l-2 9-.5 2.2c-.9 4.1-1.8 7.5-4.5 10.8-52.8 29.1-135.5 21.3-191.1 5.4L115 471l-3.7-1c-4.1-1.5-6.5-2.6-8.7-6.5a70 70 0 0 1-3.2-15.8c-1.8-14.1-1.8-14.1-4.9-17.3-3-2-5.9-3.1-9.3-4.2-3.4-1.3-4.5-2.1-6.2-5.2a41 41 0 0 1-1.6-11.1l-.1-2.5q-.6-16.9-.4-33.7v-37.6L77 290v-8.4l.1-11.4v-5.6c.2-7.6.2-7.6 2.2-10.4 15.2-13.2 45.7-13.6 64.8-16l2.7-.3 7.7-1 2.3-.3c8.2-.9 12.4-1 19.2 3.4v2l1.9.4c2.1.6 2.1.6 3.1 1.6v-5l-3-3a170 170 0 0 1 26.2-1h8.8zm-29 9-2 4 4 5h2l.4 1.8 1.6 5.2h3v-3h-2v-5l-4-2v-3h-2zm40 0c-2 3.8-2 3.8-2 6h2v2h2v4h2v4h3v-4h-2l1-4-3-1c-.6-1.9-.6-1.9-1-4zm115 56v50l10 1c5.4 2.7 5.7 5.7 7.6 11.2 1.4 2.8 1.4 2.8 3.8 4.2 2.7.6 4.8.7 7.5.5l2.5-.2c6.3-1.7 9.9-5.9 13.5-11.1l1.3-1.9c25.2-36.8 25.2-36.8 22.8-56.7a22 22 0 0 0-9.9-12.8c-18.8-10.8-43 7-59.1 15.8"/><path fill="#740A1E" d="M206.7 238.9h2c3 0 5.4.2 8.3 1 .7 2.2.7 2.2 1 4h2v2h2l2 6h2l.8 3 1.2 3q2 .7 4 1l-2-11h-2c-1.4-2.5-2-3.8-2-7h-2l1-2c26.4 1.3 52.6 2.5 78.6 7.6l3 .5a49 49 0 0 1 22.4 9c.6 2.5.6 2.5 0 5-5.5 6.3-16 8.3-24 10h-4l.2 2.4c.9 10.6 1 21.3 1.4 32v5.4l.4 13.2 3-1 10.9-3.7 4.8-1.6 6.8-2.3 2-.7c3-1 5.4-1.7 8.5-1.7l-1 3a80 80 0 0 1-7.7 2.9l-2.1.7-7.7 2.6L303 328v56l25-7 11-3v3l-12.4 3.9-3.6 1c-.5.3-.5.3-3.4 1.2-.5 0-.5 0-3.2 1L304 387v50l12-4h3a134 134 0 0 1-3.8 23.7c-1 4-1.6 6.7-4.5 9.8C290 478 262 480.3 239 483l-2.6.3c-40 4.4-84.3 0-122.4-13.3l-3-1c-5.4-2.1-5.4-2.1-7.5-5.3a84 84 0 0 1-4.2-16.4l-.7-3.4c-1.7-8.5-1.7-8.5-.6-12 3.5 1.3 3.5 1.3 21 7l-.4-6c-1-13.8-1.2-28-1.6-42l-2.6-.7-9.7-3.2-4.1-1.3c-8.2-2.7-16-5.5-23.6-9.7v-2a326 326 0 0 1 26.7 9l2.4 1 11.9 4v-60l-18-4q-5.9-1.6-11.5-3.5l-2.7-1q-1.4-.3-2.6-.8l-2.3-.8c-2-1-2-1-4-4 .4 0 .4 0 2-1l6.8 2.7c10.5 4 21.4 6.7 32.3 9.4l-1-3-.2-5-.1-3v-3.2l-.1-3.4-.1-10.6-.2-7.1-.3-17.7-4-1-5-1.2-2.5-.6A37 37 0 0 1 87 261c0-2.3 0-2.3 1-5 14.7-13.8 45-13.2 63.9-15l2.4-.1c19.8-1.8 19.8-1.8 25.9 2.7l1.3 1.9 1.4 1.8c1 1.7 1 1.7 2 4.7h2l1.4 3c1.7 3 1.7 3 3.8 3.7l1.9.3-1.4-4.4-.7-2.5c-1-2.1-1-2.1-3-3.1l-2-4-1.5-1.6-1.4-1.4v-2q11.3-1 22.7-1.1m-86.7 33c-1.1 3.5-1.1 6.2-1.1 9.8V294q.1 16 1 31.9l18.5 3 6.3 1 9 1.4 2.8.4c7.9 1.3 15.4 1.7 23.5 2.2v-56a33 33 0 0 0-9-1.4l-3.6-.2-4-.3q-21.8-1.3-43.4-4.1m168.9.7-3 .4-3 .4a841 841 0 0 1-32 3.6 1290 1290 0 0 0-1 59q12.2-.8 24-2.8l3.3-.5A82 82 0 0 0 300 326l-1-54q-5 0-10.1.6m-53 4.5h-10c-.6.2-.6.2-3.7.2l-11.7.2-8 .2-19.5.3a1062 1062 0 0 0-1.1 43.7v10.1c0 2.2 0 2.2 1 3.2 8.6 1.2 17.3 1.3 25.9 1.6h3.8a675 675 0 0 0 27.6.6h5c1.8-.2 1.8-.2 2.8-1.2l.2-5.4V327l.2-3.8v-4l.2-8.1.2-10.5v-10q.3-1.8.2-3.7v-6.7c0-2.3 0-2.3-1-3.3zM121 328c-1 1-1 1-1 3.4v3.2l.2 3.7v7.9l.3 10.7.2 10.8.4 21.3a157 157 0 0 0 36.5 6.2q11.2.9 22.5.8v-59l-16.6-3-3-.3-3-.4-3.1-.5-6.6-1-10.1-1.5-6.4-1-3-.4-2.8-.4-2.5-.3zm170.5 2.9c-8.1 2.5-16.2 3.7-24.6 4.8l-6.8 1-6.1.8c-3 .5-3 .5-4 1.5q-.4 4.8-.4 9.7l-.2 3q-.6 20.6-.3 41.3c10.4-.5 20.4-2.1 30.6-4l4.6-.8c11-2 11-2 15.8-3.2v-56c-3.3 0-5.5.8-8.6 1.9m-109.4 6v59c33.4 1.3 33.4 1.3 44.4.2l3.5-.2q8-.7 16-2 1.4-17.9 1.2-35.8v-5.6L247 339h-3.3q-10.9.2-21.6-.7-11.2-.8-22.3-.8zm110 51.3-2.1.4-4.6.8-6.8 1.2L249 396v15l-.1 5q-.1 16.1 1 32a190 190 0 0 0 29.5-4c20.7-4.1 20.7-4.1 22.6-6v-6.8l-.1-3v-3l-.2-6.1-.2-9.6-.1-6.1-.1-3q0-6.8-1.3-13.4c-2.6 0-5.4.8-8 1.2M121 392l-.1 15.7v5.3c-.2 18.2-.2 18.2 2 27q9.5 3.4 19 5c.6 0 .6 0 2.9.5 26 4.5 26 4.5 36.2 4.5q.1-17.2-.4-34.5l-.1-4.3-.2-6-.1-3.5c-.2-2.7-.2-2.7-1.2-3.7l-5.8-.4-3.7-.2-2-.1q-20.9-1-41.3-5c-2.2-.3-2.2-.3-5.2-.3m119.4 4.4c-19.4 2-39 2.3-58.4 2.6l.4 21.3v7.3l.3 10.4v6.3q0 1.4.2 2.7c0 2 0 2 1 3q12 1.4 23.7 1.2h3.2q18.1-.4 36.2-2.2c1-3 1-4.8.9-8l-.1-3-.1-3.2-.2-3.4-.4-10.6-.3-7.1-.8-17.7c-2 0-2 0-5.6.4"/><path d="M185 240h31v2h2v3l3 1c3 5.2 3 5.2 3 8h2l1 4 6 1-.7-1.8-.8-2.4-.8-2.4c-.7-2.4-.7-2.4-.7-6.4h-2l-2-6c85.6 1.7 85.6 1.7 103 17-.5 4.6-.5 4.6-2.5 6.4-16.1 8-35 9.7-52.5 11.6l-2.8.3c-17 1.8-34.1 2.3-51.2 2.7l-3 .1c-98.2 2-98.2 2-127-15.1-2-2-2-2-2.1-4.6l.1-2.4c16.9-10.8 38.7-11.8 58.2-13.8l3.9-.3c20.8-2 20.8-2 24.9.1v2l1.7.2c3.3 1.2 5 3.1 7.3 5.8.8 2.3.8 2.3 1 4h2v2h2v3h6l-1.8-4.8-1-2.7a18 18 0 0 0-4.2-5.5c-.7-2.2-.7-2.2-1-4h-2z"/></svg>